<svg width="578" height="180" viewBox="0 0 578 180" version="1.1" xmlns="http://www.w3.org/2000/svg" xmlns:xlink="http://www.w3.org/1999/xlink" xmlns:figma="http://www.figma.com/figma/ns">
<title>Building Pong</title>
<desc>Created using Figma</desc>
<g id="Canvas" transform="translate(305 266)" figma:type="canvas">
<rect x="-305" y="-266" width="578" height="180" fill="#E5E5E5"/>
<mask id="mask0_alpha" mask-type="alpha">
<path d="M -305 -266L 273 -266L 273 -86L -305 -86L -305 -266Z" fill="#FFFFFF"/>
</mask>
<g id="Pong" style="mix-blend-mode:normal;" mask="url(#mask0_alpha)" figma:type="frame">
<path d="M -305 -266L 273 -266L 273 -86L -305 -86L -305 -266Z" fill="#333333"/>
<g id="Group" style="mix-blend-mode:normal;" figma:type="frame">
<g id="Rectangle 2" style="mix-blend-mode:normal;" figma:type="rounded-rectangle">
<use xlink:href="#path0_fill" transform="translate(-293 -253.502)" fill="#333333" style="mix-blend-mode:normal;"/>
<mask id="mask1_outline_ins">
<use xlink:href="#path0_fill" fill="white" transform="translate(-293 -253.502)"/>
</mask>
<g mask="url(#mask1_outline_ins)">
<use xlink:href="#path1_stroke_2x" transform="translate(-293 -253.502)" fill="#F2F2F2" style="mix-blend-mode:normal;"/>
</g>
</g>
<g id="Rectangle 3" style="mix-blend-mode:normal;" figma:type="rounded-rectangle">
<use xlink:href="#path2_fill" transform="translate(-284 -160)" fill="#F2F2F2" style="mix-blend-mode:normal;"/>
</g>
<g id="Rectangle 4" style="mix-blend-mode:normal;" figma:type="rounded-rectangle">
<use xlink:href="#path3_fill" transform="translate(-114 -182.502)" fill="#F2F2F2" style="mix-blend-mode:normal;"/>
</g>
<g id="Rectangle 3" style="mix-blend-mode:normal;" figma:type="rounded-rectangle">
<use xlink:href="#path2_fill" transform="translate(-44 -212.502)" fill="#F2F2F2" style="mix-blend-mode:normal;"/>
</g>
<g id="Line" style="mix-blend-mode:normal;" figma:type="vector">
<use xlink:href="#path4_stroke" transform="matrix(0.00961259 0.999954 -1 7.76535e-30 -160 -251.005)" fill="#F2F2F2" style="mix-blend-mode:normal;"/>
</g>
</g>
<g id="Group" style="mix-blend-mode:normal;" figma:type="frame">
<g id="Rectangle 2" style="mix-blend-mode:normal;" figma:type="rounded-rectangle">
<use xlink:href="#path0_fill" transform="translate(-4 -253.502)" fill="#333333" style="mix-blend-mode:normal;"/>
<mask id="mask2_outline_ins">
<use xlink:href="#path0_fill" fill="white" transform="translate(-4 -253.502)"/>
</mask>
<g mask="url(#mask2_outline_ins)">
<use xlink:href="#path1_stroke_2x" transform="translate(-4 -253.502)" fill="#F2F2F2" style="mix-blend-mode:normal;"/>
</g>
</g>
<g id="Rectangle 3" style="mix-blend-mode:normal;" figma:type="rounded-rectangle">
<use xlink:href="#path2_fill" transform="translate(5 -232.502)" fill="#F2F2F2" style="mix-blend-mode:normal;"/>
</g>
<g id="Rectangle 4" style="mix-blend-mode:normal;" figma:type="rounded-rectangle">
<use xlink:href="#path3_fill" transform="translate(87 -171.502)" fill="#F2F2F2" style="mix-blend-mode:normal;"/>
</g>
<g id="Rectangle 3" style="mix-blend-mode:normal;" figma:type="rounded-rectangle">
<use xlink:href="#path2_fill" transform="translate(246 -182.502)" fill="#F2F2F2" style="mix-blend-mode:normal;"/>
</g>
<g id="Line" style="mix-blend-mode:normal;" figma:type="vector">
<use xlink:href="#path5_stroke" transform="matrix(0.00480646 0.999988 -1 1.55307e-29 129 -251.005)" fill="#F2F2F2" style="mix-blend-mode:normal;"/>
</g>
</g>
</g>
<g id="Building Pong in WPF" style="mix-blend-mode:normal;" figma:type="text">
<use xlink:href="#path6_fill" transform="translate(-284 -245.503)" fill="#E7BA31" style="mix-blend-mode:normal;"/>
</g>
</g>
<defs>
<path id="path0_fill" d="M 0 0L 265 0L 265 154L 0 154L 0 0Z"/>
<path id="path1_stroke_2x" d="M 0 0L 0 -4L -4 -4L -4 0L 0 0ZM 265 0L 269 0L 269 -4L 265 -4L 265 0ZM 265 154L 265 158L 269 158L 269 154L 265 154ZM 0 154L -4 154L -4 158L 0 158L 0 154ZM 0 4L 265 4L 265 -4L 0 -4L 0 4ZM 261 0L 261 154L 269 154L 269 0L 261 0ZM 265 150L 0 150L 0 158L 265 158L 265 150ZM 4 154L 4 0L -4 0L -4 154L 4 154Z"/>
<path id="path2_fill" d="M 0 0L 4 0L 4 28L 0 28L 0 0Z"/>
<path id="path3_fill" d="M 0 0L 6 0L 6 6L 0 6L 0 0Z"/>
<path id="path4_stroke" d="M 0 2L 4.68779 2L 4.68779 -2L 0 -2L 0 2ZM 14.0634 2L 23.439 2L 23.439 -2L 14.0634 -2L 14.0634 2ZM 32.8146 2L 42.1902 2L 42.1902 -2L 32.8146 -2L 32.8146 2ZM 51.5657 2L 60.9413 2L 60.9413 -2L 51.5657 -2L 51.5657 2ZM 70.3169 2L 79.6925 2L 79.6925 -2L 70.3169 -2L 70.3169 2ZM 89.0681 2L 98.4437 2L 98.4437 -2L 89.0681 -2L 89.0681 2ZM 107.819 2L 117.195 2L 117.195 -2L 107.819 -2L 107.819 2ZM 126.57 2L 135.946 2L 135.946 -2L 126.57 -2L 126.57 2ZM 145.322 2L 150.009 2L 150.009 -2L 145.322 -2L 145.322 2Z"/>
<path id="path5_stroke" d="M 0 2L 4.68763 2L 4.68763 -2L 0 -2L 0 2ZM 14.0629 2L 23.4382 2L 23.4382 -2L 14.0629 -2L 14.0629 2ZM 32.8134 2L 42.1887 2L 42.1887 -2L 32.8134 -2L 32.8134 2ZM 51.564 2L 60.9392 2L 60.9392 -2L 51.564 -2L 51.564 2ZM 70.3145 2L 79.6898 2L 79.6898 -2L 70.3145 -2L 70.3145 2ZM 89.065 2L 98.4403 2L 98.4403 -2L 89.065 -2L 89.065 2ZM 107.816 2L 117.191 2L 117.191 -2L 107.816 -2L 107.816 2ZM 126.566 2L 135.941 2L 135.941 -2L 126.566 -2L 126.566 2ZM 145.317 2L 150.004 2L 150.004 -2L 145.317 -2L 145.317 2Z"/>
<path id="path6_fill" d="M 1.37109 22.2656L 1.37109 5.20312L 6.64453 5.20312C 8.42578 5.20312 9.77734 5.60156 10.6992 6.39844C 11.6289 7.1875 12.0938 8.34766 12.0938 9.87891C 12.0938 10.7461 11.9023 11.4922 11.5195 12.1172C 11.1367 12.7422 10.6133 13.1992 9.94922 13.4883C 10.7148 13.707 11.3047 14.1484 11.7188 14.8125C 12.1328 15.4688 12.3398 16.2813 12.3398 17.25C 12.3398 18.9063 11.8828 20.1562 10.9688 21C 10.0625 21.8438 8.74609 22.2656 7.01953 22.2656L 1.37109 22.2656ZM 4.81641 14.8477L 4.81641 19.4062L 7.01953 19.4062C 7.63672 19.4062 8.10547 19.2148 8.42578 18.832C 8.74609 18.4492 8.90625 17.9062 8.90625 17.2031C 8.90625 15.6719 8.35156 14.8867 7.24219 14.8477L 4.81641 14.8477ZM 4.81641 12.3398L 6.60938 12.3398C 7.96094 12.3398 8.63672 11.6406 8.63672 10.2422C 8.63672 9.46875 8.48047 8.91406 8.16797 8.57812C 7.85547 8.24219 7.34766 8.07422 6.64453 8.07422L 4.81641 8.07422L 4.81641 12.3398ZM 20.918 21.1055C 20.2305 22.0352 19.3086 22.5 18.1523 22.5C 16.9883 22.5 16.1055 22.1016 15.5039 21.3047C 14.9023 20.5 14.6016 19.332 14.6016 17.8008L 14.6016 9.58594L 17.918 9.58594L 17.918 17.8828C 17.9336 19.1172 18.3438 19.7344 19.1484 19.7344C 19.9063 19.7344 20.4531 19.4062 20.7891 18.75L 20.7891 9.58594L 24.1289 9.58594L 24.1289 22.2656L 21.0117 22.2656L 20.918 21.1055ZM 29.9766 22.2656L 26.6484 22.2656L 26.6484 9.58594L 29.9766 9.58594L 29.9766 22.2656ZM 26.4961 6.30469C 26.4961 5.78906 26.6602 5.36719 26.9883 5.03906C 27.3164 4.71094 27.7539 4.54688 28.3008 4.54688C 28.8477 4.54688 29.2852 4.71094 29.6133 5.03906C 29.9414 5.36719 30.1055 5.78906 30.1055 6.30469C 30.1055 6.8125 29.9414 7.23438 29.6133 7.57031C 29.293 7.90625 28.8555 8.07422 28.3008 8.07422C 27.7461 8.07422 27.3047 7.90625 26.9766 7.57031C 26.6562 7.23438 26.4961 6.8125 26.4961 6.30469ZM 36.0234 22.2656L 32.6953 22.2656L 32.6953 4.26562L 36.0234 4.26562L 36.0234 22.2656ZM 38.1445 15.5391C 38.1445 13.4609 38.4961 11.9102 39.1992 10.8867C 39.9023 9.86328 40.9258 9.35156 42.2695 9.35156C 43.2461 9.35156 44.0586 9.77344 44.707 10.6172L 44.707 4.26562L 48.0469 4.26562L 48.0469 22.2656L 45.0352 22.2656L 44.8828 20.9766C 44.2031 21.9922 43.3281 22.5 42.2578 22.5C 40.9297 22.5 39.9141 21.9922 39.2109 20.9766C 38.5156 19.9609 38.1602 18.4688 38.1445 16.5L 38.1445 15.5391ZM 41.4727 16.3711C 41.4727 17.6211 41.6055 18.4961 41.8711 18.9961C 42.1367 19.4883 42.5859 19.7344 43.2188 19.7344C 43.875 19.7344 44.3711 19.4414 44.707 18.8555L 44.707 13.0664C 44.3789 12.4414 43.8867 12.1289 43.2305 12.1289C 42.6211 12.1289 42.1758 12.375 41.8945 12.8672C 41.6133 13.3594 41.4727 14.2344 41.4727 15.4922L 41.4727 16.3711ZM 53.9766 22.2656L 50.6484 22.2656L 50.6484 9.58594L 53.9766 9.58594L 53.9766 22.2656ZM 50.4961 6.30469C 50.4961 5.78906 50.6602 5.36719 50.9883 5.03906C 51.3164 4.71094 51.7539 4.54688 52.3008 4.54688C 52.8477 4.54688 53.2852 4.71094 53.6133 5.03906C 53.9414 5.36719 54.1055 5.78906 54.1055 6.30469C 54.1055 6.8125 53.9414 7.23438 53.6133 7.57031C 53.293 7.90625 52.8555 8.07422 52.3008 8.07422C 51.7461 8.07422 51.3047 7.90625 50.9766 7.57031C 50.6562 7.23438 50.4961 6.8125 50.4961 6.30469ZM 59.5781 9.58594L 59.6719 10.8398C 60.4219 9.84766 61.4023 9.35156 62.6133 9.35156C 64.793 9.35156 65.9141 10.8789 65.9766 13.9336L 65.9766 22.2656L 62.6484 22.2656L 62.6484 14.1797C 62.6484 13.4609 62.5391 12.9414 62.3203 12.6211C 62.1094 12.293 61.7344 12.1289 61.1953 12.1289C 60.5937 12.1289 60.125 12.4375 59.7891 13.0547L 59.7891 22.2656L 56.4609 22.2656L 56.4609 9.58594L 59.5781 9.58594ZM 67.957 15.5391C 67.957 13.4609 68.332 11.9102 69.082 10.8867C 69.832 9.86328 70.8828 9.35156 72.2344 9.35156C 73.3828 9.35156 74.2695 9.80469 74.8945 10.7109L 75.0234 9.58594L 78.0117 9.58594L 78.0117 22.2656C 78.0117 23.8828 77.5586 25.1172 76.6523 25.9688C 75.7461 26.8281 74.4453 27.2578 72.75 27.2578C 72.0547 27.2578 71.3242 27.1172 70.5586 26.8359C 69.793 26.5625 69.2227 26.2109 68.8477 25.7812L 69.9609 23.4844C 70.2734 23.8125 70.6797 24.0781 71.1797 24.2812C 71.6797 24.4922 72.1523 24.5977 72.5977 24.5977C 73.3398 24.5977 73.8711 24.418 74.1914 24.0586C 74.5195 23.707 74.6875 23.1367 74.6953 22.3477L 74.6953 21.2578C 74.0625 22.0859 73.2383 22.5 72.2227 22.5C 70.8711 22.5 69.8242 21.9766 69.082 20.9297C 68.3477 19.875 67.9727 18.3906 67.957 16.4766L 67.957 15.5391ZM 71.2734 16.3711C 71.2734 17.543 71.4258 18.3984 71.7305 18.9375C 72.0352 19.4687 72.5195 19.7344 73.1836 19.7344C 73.8633 19.7344 74.3672 19.4883 74.6953 18.9961L 74.6953 12.9375C 74.3516 12.3984 73.8555 12.1289 73.207 12.1289C 72.5508 12.1289 72.0625 12.3984 71.7422 12.9375C 71.4297 13.4766 71.2734 14.3438 71.2734 15.5391L 71.2734 16.3711ZM 89.5664 16.2656L 89.5664 22.2656L 86.1211 22.2656L 86.1211 5.20312L 91.9336 5.20312C 93.6211 5.20312 94.9648 5.72656 95.9648 6.77344C 96.9727 7.82031 97.4766 9.17969 97.4766 10.8516C 97.4766 12.5234 96.9805 13.8437 95.9883 14.8125C 94.9961 15.7813 93.6211 16.2656 91.8633 16.2656L 89.5664 16.2656ZM 89.5664 13.3945L 91.9336 13.3945C 92.5898 13.3945 93.0977 13.1797 93.457 12.75C 93.8164 12.3203 93.9961 11.6953 93.9961 10.875C 93.9961 10.0234 93.8125 9.34766 93.4453 8.84766C 93.0781 8.33984 92.5859 8.08203 91.9688 8.07422L 89.5664 8.07422L 89.5664 13.3945ZM 99.0938 15.5156C 99.0938 13.5938 99.5469 12.0859 100.453 10.9922C 101.359 9.89844 102.613 9.35156 104.215 9.35156C 105.832 9.35156 107.094 9.89844 108 10.9922C 108.906 12.0859 109.359 13.6016 109.359 15.5391L 109.359 16.3477C 109.359 18.2773 108.91 19.7852 108.012 20.8711C 107.113 21.957 105.855 22.5 104.238 22.5C 102.613 22.5 101.348 21.957 100.441 20.8711C 99.543 19.7773 99.0938 18.2617 99.0938 16.3242L 99.0938 15.5156ZM 102.422 16.3477C 102.422 18.6133 103.027 19.7461 104.238 19.7461C 105.355 19.7461 105.957 18.8008 106.043 16.9102L 106.055 15.5156C 106.055 14.3594 105.895 13.5039 105.574 12.9492C 105.254 12.3867 104.801 12.1055 104.215 12.1055C 103.652 12.1055 103.211 12.3867 102.891 12.9492C 102.578 13.5039 102.422 14.3594 102.422 15.5156L 102.422 16.3477ZM 114.469 9.58594L 114.562 10.8398C 115.312 9.84766 116.293 9.35156 117.504 9.35156C 119.684 9.35156 120.805 10.8789 120.867 13.9336L 120.867 22.2656L 117.539 22.2656L 117.539 14.1797C 117.539 13.4609 117.43 12.9414 117.211 12.6211C 117 12.293 116.625 12.1289 116.086 12.1289C 115.484 12.1289 115.016 12.4375 114.68 13.0547L 114.68 22.2656L 111.352 22.2656L 111.352 9.58594L 114.469 9.58594ZM 122.848 15.5391C 122.848 13.4609 123.223 11.9102 123.973 10.8867C 124.723 9.86328 125.773 9.35156 127.125 9.35156C 128.273 9.35156 129.16 9.80469 129.785 10.7109L 129.914 9.58594L 132.902 9.58594L 132.902 22.2656C 132.902 23.8828 132.449 25.1172 131.543 25.9688C 130.637 26.8281 129.336 27.2578 127.641 27.2578C 126.945 27.2578 126.215 27.1172 125.449 26.8359C 124.684 26.5625 124.113 26.2109 123.738 25.7812L 124.852 23.4844C 125.164 23.8125 125.57 24.0781 126.07 24.2812C 126.57 24.4922 127.043 24.5977 127.488 24.5977C 128.23 24.5977 128.762 24.418 129.082 24.0586C 129.41 23.707 129.578 23.1367 129.586 22.3477L 129.586 21.2578C 128.953 22.0859 128.129 22.5 127.113 22.5C 125.762 22.5 124.715 21.9766 123.973 20.9297C 123.238 19.875 122.863 18.3906 122.848 16.4766L 122.848 15.5391ZM 126.164 16.3711C 126.164 17.543 126.316 18.3984 126.621 18.9375C 126.926 19.4687 127.41 19.7344 128.074 19.7344C 128.754 19.7344 129.258 19.4883 129.586 18.9961L 129.586 12.9375C 129.242 12.3984 128.746 12.1289 128.098 12.1289C 127.441 12.1289 126.953 12.3984 126.633 12.9375C 126.32 13.4766 126.164 14.3438 126.164 15.5391L 126.164 16.3711ZM 4.6875 50.3906L 1.35938 50.3906L 1.35938 37.7109L 4.6875 37.7109L 4.6875 50.3906ZM 1.20703 34.4297C 1.20703 33.9141 1.37109 33.4922 1.69922 33.1641C 2.02734 32.8359 2.46484 32.6719 3.01172 32.6719C 3.55859 32.6719 3.99609 32.8359 4.32422 33.1641C 4.65234 33.4922 4.81641 33.9141 4.81641 34.4297C 4.81641 34.9375 4.65234 35.3594 4.32422 35.6953C 4.00391 36.0312 3.56641 36.1992 3.01172 36.1992C 2.45703 36.1992 2.01562 36.0312 1.6875 35.6953C 1.36719 35.3594 1.20703 34.9375 1.20703 34.4297ZM 10.2891 37.7109L 10.3828 38.9648C 11.1328 37.9727 12.1133 37.4766 13.3242 37.4766C 15.5039 37.4766 16.625 39.0039 16.6875 42.0586L 16.6875 50.3906L 13.3594 50.3906L 13.3594 42.3047C 13.3594 41.5859 13.25 41.0664 13.0312 40.7461C 12.8203 40.418 12.4453 40.2539 11.9062 40.2539C 11.3047 40.2539 10.8359 40.5625 10.5 41.1797L 10.5 50.3906L 7.17188 50.3906L 7.17188 37.7109L 10.2891 37.7109ZM 35.8477 44.0508L 37.4648 33.3281L 40.875 33.3281L 37.8398 50.3906L 34.3828 50.3906L 32.3906 40.3359L 30.4219 50.3906L 26.9531 50.3906L 23.9062 33.3281L 27.3398 33.3281L 28.9453 44.0391L 30.9492 33.3281L 33.8438 33.3281L 35.8477 44.0508ZM 46.1836 44.3906L 46.1836 50.3906L 42.7383 50.3906L 42.7383 33.3281L 48.5508 33.3281C 50.2383 33.3281 51.582 33.8516 52.582 34.8984C 53.5898 35.9453 54.0938 37.3047 54.0938 38.9766C 54.0938 40.6484 53.5977 41.9687 52.6055 42.9375C 51.6133 43.9063 50.2383 44.3906 48.4805 44.3906L 46.1836 44.3906ZM 46.1836 41.5195L 48.5508 41.5195C 49.207 41.5195 49.7148 41.3047 50.0742 40.875C 50.4336 40.4453 50.6133 39.8203 50.6133 39C 50.6133 38.1484 50.4297 37.4727 50.0625 36.9727C 49.6953 36.4648 49.2031 36.207 48.5859 36.1992L 46.1836 36.1992L 46.1836 41.5195ZM 65.2031 43.4297L 59.8477 43.4297L 59.8477 50.3906L 56.4023 50.3906L 56.4023 33.3281L 65.8477 33.3281L 65.8477 36.1992L 59.8477 36.1992L 59.8477 40.5703L 65.2031 40.5703L 65.2031 43.4297Z"/>
</defs>
</svg>
